<svg width="254" height="56" viewBox="0 0 254 56" fill="none" xmlns="http://www.w3.org/2000/svg">
<path d="M0.180398 2.63636H11.7884L27.3338 40.5795H27.9474L43.4929 2.63636H55.1009V55H45.9986V19.0256H45.5128L31.0412 54.8466H24.2401L9.76847 18.9489H9.28267V55H0.180398V2.63636ZM65.0213 55V15.7273H74.277V55H65.0213ZM69.6747 10.1534C68.2088 10.1534 66.9474 9.66761 65.8906 8.69602C64.8338 7.70738 64.3054 6.52272 64.3054 5.14204C64.3054 3.74432 64.8338 2.55966 65.8906 1.58806C66.9474 0.59943 68.2088 0.105112 69.6747 0.105112C71.1577 0.105112 72.419 0.59943 73.4588 1.58806C74.5156 2.55966 75.044 3.74432 75.044 5.14204C75.044 6.52272 74.5156 7.70738 73.4588 8.69602C72.419 9.66761 71.1577 10.1534 69.6747 10.1534ZM93.0504 31.9886V55H83.7947V15.7273H92.6413V22.4006H93.1016C94.005 20.2017 95.4453 18.4545 97.4226 17.1591C99.4169 15.8636 101.88 15.2159 104.812 15.2159C107.522 15.2159 109.883 15.7955 111.894 16.9545C113.923 18.1136 115.491 19.7926 116.599 21.9915C117.724 24.1903 118.278 26.858 118.261 29.9943V55H109.005V31.4261C109.005 28.8011 108.323 26.7472 106.96 25.2642C105.613 23.7812 103.746 23.0398 101.36 23.0398C99.7408 23.0398 98.3004 23.3977 97.0391 24.1136C95.7947 24.8125 94.8146 25.8267 94.0987 27.1562C93.3999 28.4858 93.0504 30.0966 93.0504 31.9886ZM142.244 55.6903C139.158 55.6903 136.397 54.8977 133.96 53.3125C131.522 51.7273 129.596 49.4261 128.181 46.4091C126.766 43.392 126.059 39.7273 126.059 35.4148C126.059 31.0511 126.775 27.3693 128.207 24.3693C129.656 21.3523 131.607 19.0767 134.062 17.5426C136.516 15.9915 139.252 15.2159 142.269 15.2159C144.57 15.2159 146.462 15.608 147.945 16.392C149.428 17.1591 150.604 18.0881 151.474 19.179C152.343 20.2528 153.016 21.267 153.494 22.2216H153.877V2.63636H163.158V55H154.056V48.8125H153.494C153.016 49.767 152.326 50.7812 151.423 51.8551C150.519 52.9119 149.326 53.8153 147.843 54.5653C146.36 55.3153 144.494 55.6903 142.244 55.6903ZM144.826 48.0966C146.786 48.0966 148.457 47.5682 149.837 46.5114C151.218 45.4375 152.266 43.946 152.982 42.0369C153.698 40.1278 154.056 37.9034 154.056 35.3636C154.056 32.8239 153.698 30.6165 152.982 28.7415C152.283 26.8665 151.244 25.4091 149.863 24.3693C148.499 23.3295 146.82 22.8097 144.826 22.8097C142.763 22.8097 141.042 23.3466 139.661 24.4205C138.281 25.4943 137.241 26.9773 136.542 28.8693C135.843 30.7614 135.494 32.9261 135.494 35.3636C135.494 37.8182 135.843 40.0085 136.542 41.9347C137.258 43.8437 138.306 45.3523 139.687 46.4602C141.085 47.5511 142.798 48.0966 144.826 48.0966ZM192.913 15.7273V22.8864H169.697V15.7273H192.913ZM175.501 55V12.0199C175.501 9.37784 176.047 7.17897 177.138 5.42329C178.246 3.66761 179.729 2.35511 181.587 1.48579C183.445 0.616474 185.507 0.181815 187.774 0.181815C189.376 0.181815 190.8 0.309657 192.044 0.565341C193.288 0.821022 194.209 1.05114 194.805 1.25568L192.964 8.41477C192.572 8.29545 192.078 8.17613 191.482 8.05681C190.885 7.92045 190.22 7.85227 189.487 7.85227C187.766 7.85227 186.547 8.26989 185.831 9.10511C185.132 9.92329 184.783 11.0994 184.783 12.6335V55H175.501ZM225.193 38.483V15.7273H234.449V55H225.474V48.0199H225.065C224.179 50.2187 222.722 52.017 220.693 53.4148C218.682 54.8125 216.202 55.5114 213.253 55.5114C210.679 55.5114 208.403 54.9403 206.426 53.7983C204.466 52.6392 202.932 50.9602 201.824 48.7614C200.716 46.5455 200.162 43.8693 200.162 40.733V15.7273H209.418V39.3011C209.418 41.7898 210.099 43.767 211.463 45.233C212.827 46.6989 214.616 47.4318 216.832 47.4318C218.196 47.4318 219.517 47.0994 220.795 46.4347C222.074 45.7699 223.122 44.7812 223.94 43.4688C224.776 42.1392 225.193 40.4773 225.193 38.483ZM253.222 2.63636V55H243.967V2.63636H253.222Z" fill="url(#paint0_linear_22_5)"/>
<defs>
<linearGradient id="paint0_linear_22_5" x1="16.7378" y1="25.9254" x2="53.9479" y2="113.698" gradientUnits="userSpaceOnUse">
<stop stop-color="#E711FC"/>
<stop offset="1" stop-color="#14C6DF"/>
</linearGradient>
</defs>
</svg>
